<svg width="122" height="122" viewBox="0 0 122 122" fill="none" xmlns="http://www.w3.org/2000/svg">
<path d="M118.493 71.1663H73.7087C72.3057 71.1663 71.167 70.0277 71.167 68.6247C71.167 67.2217 72.3057 66.083 73.7087 66.083H118.493C119.896 66.083 121.035 67.2217 121.035 68.6247C121.035 70.0277 119.896 71.1663 118.493 71.1663Z" fill="url(#paint0_linear)"/>
<path d="M119.408 55.9163H73.861C72.458 55.9163 71.3193 54.7777 71.3193 53.3747C71.3193 51.9717 72.458 50.833 73.861 50.833H119.408C120.811 50.833 121.949 51.9717 121.949 53.3747C121.949 54.7777 120.816 55.9163 119.408 55.9163Z" fill="url(#paint1_linear)"/>
<path d="M48.1391 55.9163H2.59245C1.18945 55.9163 0.0507812 54.7777 0.0507812 53.3747C0.0507812 51.9717 1.18436 50.833 2.59245 50.833H48.1391C49.5421 50.833 50.6808 51.9717 50.6808 53.3747C50.6808 54.7777 49.5421 55.9163 48.1391 55.9163Z" fill="url(#paint2_linear)"/>
<path d="M48.2913 71.1663H3.81217C2.40917 71.1663 1.27051 70.0277 1.27051 68.6247C1.27051 67.2217 2.40917 66.083 3.81217 66.083H48.2913C49.6943 66.083 50.833 67.2217 50.833 68.6247C50.833 70.0277 49.6943 71.1663 48.2913 71.1663Z" fill="url(#paint3_linear)"/>
<path d="M27.9587 55.917C26.5557 55.917 25.417 54.7783 25.417 53.3753V8.89616C25.417 7.49316 26.5557 6.35449 27.9587 6.35449C29.3617 6.35449 30.5003 7.49316 30.5003 8.89616V53.3753C30.5003 54.7783 29.3617 55.917 27.9587 55.917Z" fill="url(#paint4_linear)"/>
<path d="M94.0417 55.917C92.6387 55.917 91.5 54.7783 91.5 53.3753V8.89616C91.5 7.49316 92.6387 6.35449 94.0417 6.35449C95.4447 6.35449 96.5833 7.49316 96.5833 8.89616V53.3753C96.5833 54.7783 95.4447 55.917 94.0417 55.917Z" fill="url(#paint5_linear)"/>
<path d="M73.7083 86.417H48.2917C46.8887 86.417 45.75 85.2783 45.75 83.8753V55.917C45.75 47.5092 52.5922 40.667 61 40.667C69.4078 40.667 76.25 47.5092 76.25 55.917V83.8753C76.25 85.2783 75.1113 86.417 73.7083 86.417ZM50.8333 81.3336H71.1667V55.917C71.1667 50.3101 66.6069 45.7503 61 45.7503C55.3931 45.7503 50.8333 50.3101 50.8333 55.917V81.3336Z" fill="url(#paint6_linear)"/>
<path d="M60.9997 71.167C59.5967 71.167 58.458 70.0283 58.458 68.6253V58.4587C58.458 57.0557 59.5967 55.917 60.9997 55.917C62.4027 55.917 63.5413 57.0557 63.5413 58.4587V68.6253C63.5413 70.0283 62.4027 71.167 60.9997 71.167Z" fill="url(#paint7_linear)"/>
<path d="M106.094 116.916H16.978C10.4256 116.916 4.8593 111.797 4.31538 105.265L0.0962177 54.5642C0.0250511 53.7458 0.0301344 52.9273 0.126718 52.1038L4.0968 16.3883C4.80847 9.94267 10.2426 5.08301 16.7238 5.08301H105.275C111.757 5.08301 117.191 9.94267 117.902 16.3934L121.883 52.2157C121.964 52.9528 121.984 53.6797 121.939 54.4066L118.777 105.006C118.36 111.686 112.789 116.916 106.094 116.916ZM16.7238 10.1663C12.83 10.1663 9.57663 13.0791 9.14963 16.9475L5.17955 52.6732C5.12363 53.1663 5.11855 53.6543 5.15922 54.1423L9.37838 104.843C9.71388 108.824 12.9825 111.833 16.978 111.833H106.094C110.11 111.833 113.455 108.697 113.704 104.686L116.865 54.0965C116.891 53.6593 116.881 53.2171 116.83 52.7748L112.85 16.9526C112.423 13.0791 109.169 10.1663 105.275 10.1663H16.7238Z" fill="url(#paint8_linear)"/>
<defs>
<linearGradient id="paint0_linear" x1="96.1007" y1="66.083" x2="96.1007" y2="71.1663" gradientUnits="userSpaceOnUse">
<stop stop-color="#FFB800"/>
<stop offset="1" stop-color="#BC22F0"/>
</linearGradient>
<linearGradient id="paint1_linear" x1="96.6343" y1="50.833" x2="96.6343" y2="55.9163" gradientUnits="userSpaceOnUse">
<stop stop-color="#FFB800"/>
<stop offset="1" stop-color="#BC22F0"/>
</linearGradient>
<linearGradient id="paint2_linear" x1="25.3658" y1="50.833" x2="25.3658" y2="55.9163" gradientUnits="userSpaceOnUse">
<stop stop-color="#FFB800"/>
<stop offset="1" stop-color="#BC22F0"/>
</linearGradient>
<linearGradient id="paint3_linear" x1="26.0518" y1="66.083" x2="26.0518" y2="71.1663" gradientUnits="userSpaceOnUse">
<stop stop-color="#FFB800"/>
<stop offset="1" stop-color="#BC22F0"/>
</linearGradient>
<linearGradient id="paint4_linear" x1="27.9587" y1="6.35449" x2="27.9587" y2="55.917" gradientUnits="userSpaceOnUse">
<stop stop-color="#FFB800"/>
<stop offset="1" stop-color="#BC22F0"/>
</linearGradient>
<linearGradient id="paint5_linear" x1="94.0417" y1="6.35449" x2="94.0417" y2="55.917" gradientUnits="userSpaceOnUse">
<stop stop-color="#FFB800"/>
<stop offset="1" stop-color="#BC22F0"/>
</linearGradient>
<linearGradient id="paint6_linear" x1="61" y1="40.667" x2="61" y2="86.417" gradientUnits="userSpaceOnUse">
<stop stop-color="#FFB800"/>
<stop offset="1" stop-color="#BC22F0"/>
</linearGradient>
<linearGradient id="paint7_linear" x1="60.9997" y1="55.917" x2="60.9997" y2="71.167" gradientUnits="userSpaceOnUse">
<stop stop-color="#FFB800"/>
<stop offset="1" stop-color="#BC22F0"/>
</linearGradient>
<linearGradient id="paint8_linear" x1="61.0052" y1="5.08301" x2="61.0052" y2="116.916" gradientUnits="userSpaceOnUse">
<stop stop-color="#FFB800"/>
<stop offset="1" stop-color="#BC22F0"/>
</linearGradient>
</defs>
</svg>
