<svg width="453" height="415" viewBox="0 0 453 415" fill="none" xmlns="http://www.w3.org/2000/svg">
<path d="M226.032 23.0308L229.324 194.847H222.74L226.032 23.0308Z" fill="url(#paint0_linear)" fill-opacity="0.6"/>
<path d="M226.032 391.498L222.74 219.682L229.324 219.682L226.032 391.498Z" fill="url(#paint1_linear)" fill-opacity="0.6"/>
<path d="M273.716 29.3085L232.426 196.122L226.067 194.418L273.716 29.3085Z" fill="url(#paint2_linear)" fill-opacity="0.6"/>
<path d="M178.349 385.22L219.638 218.407L225.998 220.111L178.349 385.22Z" fill="url(#paint3_linear)" fill-opacity="0.6"/>
<path d="M318.149 47.7131L235.092 198.156L229.39 194.864L318.149 47.7131Z" fill="url(#paint4_linear)" fill-opacity="0.6"/>
<path d="M133.915 366.815L216.972 216.372L222.674 219.664L133.915 366.815Z" fill="url(#paint5_linear)" fill-opacity="0.6"/>
<path d="M356.305 76.9916L237.14 200.812L232.484 196.156L356.305 76.9916Z" fill="url(#paint6_linear)" fill-opacity="0.6"/>
<path d="M95.7591 337.537L214.924 213.717L219.579 218.373L95.7591 337.537Z" fill="url(#paint7_linear)" fill-opacity="0.6"/>
<path d="M385.582 115.147L238.431 203.906L235.139 198.204L385.582 115.147Z" fill="url(#paint8_linear)" fill-opacity="0.6"/>
<path d="M66.4805 299.38L213.632 210.621L216.924 216.323L66.4805 299.38Z" fill="url(#paint9_linear)" fill-opacity="0.6"/>
<path d="M403.987 159.581L238.878 207.23L237.174 200.87L403.987 159.581Z" fill="url(#paint10_linear)" fill-opacity="0.6"/>
<path d="M48.0755 254.947L213.185 207.298L214.889 213.658L48.0755 254.947Z" fill="url(#paint11_linear)" fill-opacity="0.6"/>
<path d="M410.265 207.265L238.449 210.557L238.449 203.973L410.265 207.265Z" fill="url(#paint12_linear)" fill-opacity="0.6"/>
<path d="M41.7979 207.264L213.614 203.972L213.614 210.556L41.7979 207.264Z" fill="url(#paint13_linear)" fill-opacity="0.6"/>
<path d="M403.988 254.947L237.174 213.658L238.878 207.298L403.988 254.947Z" fill="url(#paint14_linear)" fill-opacity="0.6"/>
<path d="M48.0756 159.581L214.889 200.87L213.185 207.23L48.0756 159.581Z" fill="url(#paint15_linear)" fill-opacity="0.6"/>
<path d="M385.582 299.381L235.139 216.324L238.431 210.622L385.582 299.381Z" fill="url(#paint16_linear)" fill-opacity="0.6"/>
<path d="M66.4807 115.147L216.924 198.204L213.632 203.906L66.4807 115.147Z" fill="url(#paint17_linear)" fill-opacity="0.6"/>
<path d="M356.304 337.537L232.484 218.372L237.139 213.717L356.304 337.537Z" fill="url(#paint18_linear)" fill-opacity="0.6"/>
<path d="M95.7584 76.9913L219.579 196.156L214.923 200.811L95.7584 76.9913Z" fill="url(#paint19_linear)" fill-opacity="0.6"/>
<path d="M318.148 366.816L229.389 219.664L235.091 216.373L318.148 366.816Z" fill="url(#paint20_linear)" fill-opacity="0.6"/>
<path d="M133.915 47.7131L222.674 194.864L216.972 198.156L133.915 47.7131Z" fill="url(#paint21_linear)" fill-opacity="0.6"/>
<path d="M273.715 385.22L226.066 220.111L232.425 218.406L273.715 385.22Z" fill="url(#paint22_linear)" fill-opacity="0.6"/>
<path d="M178.348 29.3082L225.998 194.418L219.638 196.122L178.348 29.3082Z" fill="url(#paint23_linear)" fill-opacity="0.6"/>
<defs>
<linearGradient id="paint0_linear" x1="226.032" y1="23.0308" x2="226.032" y2="252.119" gradientUnits="userSpaceOnUse">
<stop stop-color="#1B21EF"/>
<stop offset="1" stop-color="#1B21EF" stop-opacity="0"/>
</linearGradient>
<linearGradient id="paint1_linear" x1="226.032" y1="391.498" x2="226.032" y2="162.41" gradientUnits="userSpaceOnUse">
<stop stop-color="#1B21EF"/>
<stop offset="1" stop-color="#1B21EF" stop-opacity="0"/>
</linearGradient>
<linearGradient id="paint2_linear" x1="273.716" y1="29.3085" x2="214.423" y2="250.591" gradientUnits="userSpaceOnUse">
<stop stop-color="#1B21EF"/>
<stop offset="1" stop-color="#1B21EF" stop-opacity="0"/>
</linearGradient>
<linearGradient id="paint3_linear" x1="178.349" y1="385.22" x2="237.641" y2="163.938" gradientUnits="userSpaceOnUse">
<stop stop-color="#1B21EF"/>
<stop offset="1" stop-color="#1B21EF" stop-opacity="0"/>
</linearGradient>
<linearGradient id="paint4_linear" x1="318.149" y1="47.7131" x2="203.605" y2="246.109" gradientUnits="userSpaceOnUse">
<stop stop-color="#1B21EF"/>
<stop offset="1" stop-color="#1B21EF" stop-opacity="0"/>
</linearGradient>
<linearGradient id="paint5_linear" x1="133.915" y1="366.815" x2="248.459" y2="168.419" gradientUnits="userSpaceOnUse">
<stop stop-color="#1B21EF"/>
<stop offset="1" stop-color="#1B21EF" stop-opacity="0"/>
</linearGradient>
<linearGradient id="paint6_linear" x1="356.305" y1="76.9916" x2="194.315" y2="238.981" gradientUnits="userSpaceOnUse">
<stop stop-color="#1B21EF"/>
<stop offset="1" stop-color="#1B21EF" stop-opacity="0"/>
</linearGradient>
<linearGradient id="paint7_linear" x1="95.7591" y1="337.537" x2="257.749" y2="175.547" gradientUnits="userSpaceOnUse">
<stop stop-color="#1B21EF"/>
<stop offset="1" stop-color="#1B21EF" stop-opacity="0"/>
</linearGradient>
<linearGradient id="paint8_linear" x1="385.582" y1="115.147" x2="187.186" y2="229.691" gradientUnits="userSpaceOnUse">
<stop stop-color="#1B21EF"/>
<stop offset="1" stop-color="#1B21EF" stop-opacity="0"/>
</linearGradient>
<linearGradient id="paint9_linear" x1="66.4805" y1="299.38" x2="264.877" y2="184.836" gradientUnits="userSpaceOnUse">
<stop stop-color="#1B21EF"/>
<stop offset="1" stop-color="#1B21EF" stop-opacity="0"/>
</linearGradient>
<linearGradient id="paint10_linear" x1="403.987" y1="159.581" x2="182.705" y2="218.873" gradientUnits="userSpaceOnUse">
<stop stop-color="#1B21EF"/>
<stop offset="1" stop-color="#1B21EF" stop-opacity="0"/>
</linearGradient>
<linearGradient id="paint11_linear" x1="48.0755" y1="254.947" x2="269.358" y2="195.655" gradientUnits="userSpaceOnUse">
<stop stop-color="#1B21EF"/>
<stop offset="1" stop-color="#1B21EF" stop-opacity="0"/>
</linearGradient>
<linearGradient id="paint12_linear" x1="410.265" y1="207.265" x2="181.177" y2="207.265" gradientUnits="userSpaceOnUse">
<stop stop-color="#1B21EF"/>
<stop offset="1" stop-color="#1B21EF" stop-opacity="0"/>
</linearGradient>
<linearGradient id="paint13_linear" x1="41.7979" y1="207.264" x2="270.886" y2="207.264" gradientUnits="userSpaceOnUse">
<stop stop-color="#1B21EF"/>
<stop offset="1" stop-color="#1B21EF" stop-opacity="0"/>
</linearGradient>
<linearGradient id="paint14_linear" x1="403.988" y1="254.947" x2="182.705" y2="195.655" gradientUnits="userSpaceOnUse">
<stop stop-color="#1B21EF"/>
<stop offset="1" stop-color="#1B21EF" stop-opacity="0"/>
</linearGradient>
<linearGradient id="paint15_linear" x1="48.0756" y1="159.581" x2="269.358" y2="218.873" gradientUnits="userSpaceOnUse">
<stop stop-color="#1B21EF"/>
<stop offset="1" stop-color="#1B21EF" stop-opacity="0"/>
</linearGradient>
<linearGradient id="paint16_linear" x1="385.582" y1="299.381" x2="187.186" y2="184.837" gradientUnits="userSpaceOnUse">
<stop stop-color="#1B21EF"/>
<stop offset="1" stop-color="#1B21EF" stop-opacity="0"/>
</linearGradient>
<linearGradient id="paint17_linear" x1="66.4807" y1="115.147" x2="264.877" y2="229.691" gradientUnits="userSpaceOnUse">
<stop stop-color="#1B21EF"/>
<stop offset="1" stop-color="#1B21EF" stop-opacity="0"/>
</linearGradient>
<linearGradient id="paint18_linear" x1="356.304" y1="337.537" x2="194.314" y2="175.547" gradientUnits="userSpaceOnUse">
<stop stop-color="#1B21EF"/>
<stop offset="1" stop-color="#1B21EF" stop-opacity="0"/>
</linearGradient>
<linearGradient id="paint19_linear" x1="95.7584" y1="76.9913" x2="257.748" y2="238.981" gradientUnits="userSpaceOnUse">
<stop stop-color="#1B21EF"/>
<stop offset="1" stop-color="#1B21EF" stop-opacity="0"/>
</linearGradient>
<linearGradient id="paint20_linear" x1="318.148" y1="366.816" x2="203.604" y2="168.419" gradientUnits="userSpaceOnUse">
<stop stop-color="#1B21EF"/>
<stop offset="1" stop-color="#1B21EF" stop-opacity="0"/>
</linearGradient>
<linearGradient id="paint21_linear" x1="133.915" y1="47.7131" x2="248.459" y2="246.109" gradientUnits="userSpaceOnUse">
<stop stop-color="#1B21EF"/>
<stop offset="1" stop-color="#1B21EF" stop-opacity="0"/>
</linearGradient>
<linearGradient id="paint22_linear" x1="273.715" y1="385.22" x2="214.422" y2="163.938" gradientUnits="userSpaceOnUse">
<stop stop-color="#1B21EF"/>
<stop offset="1" stop-color="#1B21EF" stop-opacity="0"/>
</linearGradient>
<linearGradient id="paint23_linear" x1="178.348" y1="29.3082" x2="237.641" y2="250.59" gradientUnits="userSpaceOnUse">
<stop stop-color="#1B21EF"/>
<stop offset="1" stop-color="#1B21EF" stop-opacity="0"/>
</linearGradient>
</defs>
</svg>
