<svg width="30" height="22" viewBox="0 0 30 22" fill="none" xmlns="http://www.w3.org/2000/svg">
<path d="M29.3818 3.28674C29.0361 2.00153 28.0228 0.988403 26.7378 0.642334C24.3902 0 14.9996 0 14.9996 0C14.9996 0 5.60944 0 3.26184 0.617981C2.00153 0.963684 0.963501 2.00171 0.617798 3.28674C0 5.63416 0 10.5024 0 10.5024C0 10.5024 0 15.3951 0.617798 17.718C0.963867 19.0031 1.97681 20.0162 3.26202 20.3622C5.63415 21.0048 15 21.0048 15 21.0048C15 21.0048 24.3902 21.0048 26.7378 20.3868C28.023 20.0409 29.0361 19.0278 29.3822 17.7427C29.9998 15.3951 29.9998 10.5271 29.9998 10.5271C29.9998 10.5271 30.0245 5.63416 29.3818 3.28674ZM12.0099 14.9998V6.00494L19.8186 10.5024L12.0099 14.9998Z" fill="white"/>
</svg>
